<svg width="400" height="358" viewBox="0 0 400 358" fill="none" xmlns="http://www.w3.org/2000/svg">
<path fill-rule="evenodd" clip-rule="evenodd" d="M313.028 314.649C383.465 262.429 417.165 164.364 391.358 98.4813C365.855 32.5987 280.846 -1.10161 199.479 0.112811C117.809 1.32724 39.7823 37.1528 11.8505 106.071C-16.0813 174.99 6.08195 277.305 70.7501 325.275C135.418 373.245 242.591 366.869 313.028 314.649ZM291.213 139.159V213.806L328.68 176.34L291.213 139.159ZM269.546 117.658V235.473V236.376V266.368L359.375 176.791L269.546 86.9623V117.206V117.658ZM131.869 147.901V178.597L102.302 208.164L134.126 239.987V270.683L40.2344 176.791L134.126 82.8997V113.144L70.9296 176.791L86.9544 192.816L131.869 147.901ZM233.885 63.4895H257.358L162.113 293.704H138.64L233.885 63.4895Z" fill="white"/>
</svg>
